<svg xmlns="http://www.w3.org/2000/svg" xmlns:xlink="http://www.w3.org/1999/xlink" width="80" zoomAndPan="magnify" viewBox="0 0 60 60" height="80" preserveAspectRatio="xMidYMid meet" version="1.0"><path fill="#100f0d" d="M 39.105469 46.191406 L 28.980469 46.191406 C 28.441406 46.191406 28.003906 45.75 28.003906 45.210938 C 28.003906 44.671875 28.441406 44.230469 28.980469 44.230469 L 39.105469 44.230469 C 39.644531 44.230469 40.085938 44.671875 40.085938 45.210938 C 40.085938 45.75 39.644531 46.191406 39.105469 46.191406 Z M 58.316406 9.785156 L 12.882812 9.785156 L 15.769531 12.722656 L 57.0625 12.722656 L 57.0625 41.457031 L 11.027344 41.457031 L 11.027344 22.398438 L 8.085938 18.949219 L 8.085938 47.285156 C 8.085938 48.210938 8.839844 48.964844 9.765625 48.964844 L 32.410156 48.964844 L 32.410156 53.476562 L 29.675781 53.476562 C 29.601562 53.476562 29.523438 53.5 29.460938 53.542969 L 25.539062 56.289062 C 25.242188 56.5 25.390625 56.964844 25.75 56.964844 L 42.335938 56.964844 C 42.699219 56.964844 42.84375 56.5 42.546875 56.289062 L 38.625 53.542969 C 38.5625 53.5 38.488281 53.476562 38.410156 53.476562 L 35.675781 53.476562 L 35.675781 48.964844 L 58.316406 48.964844 C 59.246094 48.964844 60 48.210938 60 47.285156 L 60 11.46875 C 60 10.539062 59.246094 9.785156 58.316406 9.785156 " fill-opacity="1" fill-rule="nonzero"/><path fill="#100f0d" d="M 53.746094 17.347656 C 53.746094 16.40625 52.984375 15.640625 52.039062 15.640625 C 51.097656 15.640625 50.332031 16.40625 50.332031 17.347656 C 50.332031 18.292969 51.097656 19.058594 52.039062 19.058594 C 52.984375 19.058594 53.746094 18.292969 53.746094 17.347656 " fill-opacity="1" fill-rule="nonzero"/><path fill="#100f0d" d="M 48.691406 17.347656 C 48.691406 16.40625 47.925781 15.640625 46.984375 15.640625 C 46.039062 15.640625 45.277344 16.40625 45.277344 17.347656 C 45.277344 18.292969 46.039062 19.058594 46.984375 19.058594 C 47.925781 19.058594 48.691406 18.292969 48.691406 17.347656 " fill-opacity="1" fill-rule="nonzero"/><path fill="#100f0d" d="M 41.925781 15.640625 C 40.980469 15.640625 40.21875 16.40625 40.21875 17.347656 C 40.21875 18.292969 40.980469 19.058594 41.925781 19.058594 C 42.867188 19.058594 43.632812 18.292969 43.632812 17.347656 C 43.632812 16.40625 42.867188 15.640625 41.925781 15.640625 " fill-opacity="1" fill-rule="nonzero"/><path fill="#100f0d" d="M 41.792969 22.339844 L 41.792969 28.121094 C 41.792969 28.484375 42.089844 28.777344 42.449219 28.777344 L 53.089844 28.777344 C 53.453125 28.777344 53.746094 28.484375 53.746094 28.121094 L 53.746094 22.339844 C 53.746094 21.980469 53.453125 21.683594 53.089844 21.683594 L 42.449219 21.683594 C 42.089844 21.683594 41.792969 21.980469 41.792969 22.339844 " fill-opacity="1" fill-rule="nonzero"/><path fill="#100f0d" d="M 37.789062 21.683594 L 30.300781 21.683594 C 29.9375 21.683594 29.640625 21.980469 29.640625 22.339844 L 29.640625 28.121094 C 29.640625 28.484375 29.9375 28.777344 30.300781 28.777344 L 37.789062 28.777344 C 38.148438 28.777344 38.445312 28.484375 38.445312 28.121094 L 38.445312 22.339844 C 38.445312 21.980469 38.148438 21.683594 37.789062 21.683594 " fill-opacity="1" fill-rule="nonzero"/><path fill="#100f0d" d="M 30.253906 32.070312 C 30.386719 32.496094 30.417969 32.945312 30.347656 33.375 L 53.402344 33.375 C 53.59375 33.375 53.75 33.21875 53.75 33.027344 L 53.75 31.488281 C 53.75 31.296875 53.59375 31.140625 53.402344 31.140625 L 29.957031 31.140625 C 30.050781 31.441406 30.148438 31.75 30.253906 32.070312 " fill-opacity="1" fill-rule="nonzero"/><path fill="#100f0d" d="M 14.6875 33.375 L 21.351562 33.375 C 20.335938 32.882812 20.164062 32.683594 19.933594 32.410156 C 19.625 32.039062 19.359375 31.617188 19.148438 31.140625 L 14.6875 31.140625 C 14.492188 31.140625 14.339844 31.296875 14.339844 31.488281 L 14.339844 33.027344 C 14.339844 33.21875 14.492188 33.375 14.6875 33.375 " fill-opacity="1" fill-rule="nonzero"/><path fill="#100f0d" d="M 14.339844 36.089844 L 14.339844 37.625 C 14.339844 37.820312 14.492188 37.972656 14.6875 37.972656 L 53.402344 37.972656 C 53.59375 37.972656 53.75 37.820312 53.75 37.625 L 53.75 36.089844 C 53.75 35.894531 53.59375 35.738281 53.402344 35.738281 L 14.6875 35.738281 C 14.492188 35.738281 14.339844 35.894531 14.339844 36.089844 " fill-opacity="1" fill-rule="nonzero"/><path fill="#100f0d" d="M 18.179688 18.558594 C 14.226562 14.53125 10.316406 10.546875 6.414062 6.566406 C 5.5625 5.683594 3.433594 3.53125 3.417969 3.515625 C 3.007812 3.097656 2.496094 3.054688 1.972656 3.171875 C 1.515625 3.269531 1.140625 3.472656 0.851562 3.742188 C 0.558594 4.003906 0.324219 4.359375 0.183594 4.804688 C 0.0234375 5.316406 0.0195312 5.832031 0.398438 6.28125 C 0.410156 6.292969 2.367188 8.605469 3.171875 9.53125 C 6.785156 13.777344 10.410156 18.027344 14.066406 22.320312 C 14.769531 21.671875 17.472656 19.203125 18.179688 18.558594 " fill-opacity="1" fill-rule="nonzero"/><path fill="#100f0d" d="M 16.746094 21.117188 C 16.082031 21.726562 15.414062 22.335938 14.722656 22.96875 C 16.453125 24.488281 19.914062 27.535156 19.914062 27.535156 L 22.855469 24.847656 C 22.855469 24.847656 20.125 21.125 18.765625 19.269531 C 18.078125 19.902344 17.410156 20.511719 16.746094 21.117188 " fill-opacity="1" fill-rule="nonzero"/><path fill="#100f0d" d="M 26.375 27.550781 C 26.300781 27.273438 25.992188 26.898438 25.6875 26.667969 C 25.464844 26.496094 25.214844 26.371094 24.953125 26.269531 C 24.460938 26.078125 23.925781 25.964844 23.398438 26.042969 C 22.832031 26.128906 22.320312 26.433594 21.902344 26.820312 C 21.589844 27.113281 21.320312 27.460938 21.160156 27.859375 C 20.980469 28.3125 20.949219 28.8125 21.03125 29.292969 C 21.078125 29.570312 21.160156 29.839844 21.273438 30.101562 C 21.390625 30.378906 21.546875 30.652344 21.738281 30.878906 C 21.988281 31.171875 25.585938 32.652344 27.359375 33.375 C 27.738281 33.527344 28.121094 33.175781 28 32.785156 C 27.511719 31.25 26.597656 28.359375 26.375 27.550781 " fill-opacity="1" fill-rule="nonzero"/></svg>