<svg xmlns="http://www.w3.org/2000/svg" xmlns:xlink="http://www.w3.org/1999/xlink" width="80" zoomAndPan="magnify" viewBox="0 0 60 60" height="80" preserveAspectRatio="xMidYMid meet" version="1.0"><path fill="#ffc44d" d="M 2.003906 -0.144531 C 0.816406 -0.144531 -0.144531 0.816406 -0.144531 2.003906 L -0.144531 59.210938 C -0.144531 60.394531 0.816406 61.355469 2.003906 61.355469 L 59.210938 61.355469 C 60.394531 61.355469 61.355469 60.394531 61.355469 59.210938 L 61.355469 2.003906 C 61.355469 0.816406 60.394531 -0.144531 59.210938 -0.144531 Z M 2.003906 -0.144531 " fill-opacity="1" fill-rule="nonzero"/><path fill="#eceff1" d="M 43.480469 32.753906 C 42.292969 32.753906 41.332031 33.710938 41.332031 34.898438 L 41.332031 36.328125 C 41.332031 37.511719 42.292969 38.472656 43.480469 38.472656 L 47.769531 38.472656 C 51.324219 38.472656 54.207031 41.355469 54.207031 44.910156 L 54.207031 46.339844 C 54.207031 49.894531 51.324219 52.777344 47.769531 52.777344 L 39.1875 52.777344 C 38.003906 52.777344 37.042969 51.816406 37.042969 50.628906 C 37.042969 49.445312 38.003906 48.484375 39.1875 48.484375 L 47.769531 48.484375 C 48.953125 48.484375 49.914062 47.523438 49.914062 46.339844 L 49.914062 44.910156 C 49.914062 43.722656 48.953125 42.765625 47.769531 42.765625 L 43.480469 42.765625 C 39.925781 42.765625 37.042969 39.882812 37.042969 36.328125 L 37.042969 34.898438 C 37.042969 31.34375 39.925781 28.460938 43.480469 28.460938 L 52.058594 28.460938 C 53.246094 28.460938 54.207031 29.421875 54.207031 30.605469 C 54.207031 31.792969 53.246094 32.753906 52.058594 32.753906 Z M 43.480469 32.753906 " fill-opacity="1" fill-rule="evenodd"/><path fill="#eceff1" d="M 32.039062 28.460938 C 33.222656 28.460938 34.183594 29.421875 34.183594 30.605469 L 34.183594 46.339844 C 34.183594 49.894531 31.300781 52.777344 27.746094 52.777344 L 23.457031 52.777344 C 19.902344 52.777344 17.019531 49.894531 17.019531 46.339844 L 17.019531 44.910156 C 17.019531 43.722656 17.980469 42.765625 19.164062 42.765625 C 20.351562 42.765625 21.308594 43.722656 21.308594 44.910156 L 21.308594 46.339844 C 21.308594 47.523438 22.269531 48.484375 23.457031 48.484375 L 27.746094 48.484375 C 28.929688 48.484375 29.890625 47.523438 29.890625 46.339844 L 29.890625 30.605469 C 29.890625 29.421875 30.851562 28.460938 32.039062 28.460938 Z M 32.039062 28.460938 " fill-opacity="1" fill-rule="evenodd"/></svg>