<svg xmlns="http://www.w3.org/2000/svg" xmlns:xlink="http://www.w3.org/1999/xlink" width="80" zoomAndPan="magnify" viewBox="0 0 60 60" height="80" preserveAspectRatio="xMidYMid meet" version="1.0"><defs><clipPath id="048d920d7c"><path d="M 0 5.25 L 48 5.25 L 48 51 L 0 51 Z M 0 5.25 " clip-rule="nonzero"/></clipPath><clipPath id="39cfb82ff2"><path d="M 39 20 L 60 20 L 60 54.75 L 39 54.75 Z M 39 20 " clip-rule="nonzero"/></clipPath></defs><g clip-path="url(#048d920d7c)"><path fill="#000000" d="M 47.773438 9.066406 L 45.796875 9.066406 L 45.796875 8.101562 C 45.796875 7.546875 45.34375 7.09375 44.789062 7.09375 L 3.363281 7.09375 C 2.796875 7.09375 2.355469 7.546875 2.355469 8.101562 L 2.355469 33.730469 C 2.355469 34.285156 2.804688 34.738281 3.363281 34.738281 L 26.050781 34.738281 L 26.050781 42.636719 L 21.691406 42.636719 L 20.207031 48.5625 L 26.050781 48.5625 L 26.050781 50.539062 L 15.191406 50.539062 C 14.632812 50.539062 14.203125 50.09375 14.203125 49.550781 C 14.203125 49.023438 14.644531 48.5625 15.199219 48.5625 L 17.761719 48.5625 C 17.988281 48.5625 18.191406 48.386719 18.246094 48.183594 L 19.632812 42.636719 L 3.363281 42.636719 C 1.714844 42.636719 0.378906 41.300781 0.378906 39.6875 L 0.378906 8.070312 C 0.378906 6.433594 1.695312 5.117188 3.363281 5.117188 L 44.789062 5.117188 C 46.433594 5.117188 47.773438 6.457031 47.773438 8.070312 Z M 24.074219 40.664062 C 25.164062 40.664062 26.050781 39.777344 26.050781 38.6875 C 26.050781 37.597656 25.164062 36.714844 24.074219 36.714844 C 22.984375 36.714844 22.101562 37.597656 22.101562 38.6875 C 22.101562 39.777344 22.984375 40.664062 24.074219 40.664062 Z M 24.074219 40.664062 " fill-opacity="1" fill-rule="evenodd"/></g><path fill="#000000" d="M 55.671875 18.941406 L 53.695312 18.941406 L 53.695312 14.992188 L 30 14.992188 L 30 46.585938 L 37.898438 46.585938 L 37.898438 52.511719 L 30.996094 52.511719 C 29.351562 52.511719 28.023438 51.195312 28.023438 49.539062 L 28.023438 14.015625 C 28.023438 12.371094 29.339844 11.042969 30.996094 11.042969 L 52.699219 11.042969 C 54.34375 11.042969 55.671875 12.359375 55.671875 14.015625 Z M 55.671875 18.941406 " fill-opacity="1" fill-rule="evenodd"/><g clip-path="url(#39cfb82ff2)"><path fill="#000000" d="M 42.847656 20.917969 L 56.648438 20.917969 C 58.292969 20.917969 59.621094 22.234375 59.621094 23.886719 L 59.621094 51.515625 C 59.621094 53.160156 58.304688 54.488281 56.648438 54.488281 L 42.847656 54.488281 C 41.199219 54.488281 39.875 53.171875 39.875 51.515625 L 39.875 23.886719 C 39.875 22.242188 41.191406 20.917969 42.847656 20.917969 Z M 41.847656 46.585938 L 57.644531 46.585938 L 57.644531 24.867188 L 41.847656 24.867188 Z M 49.746094 52.511719 C 50.835938 52.511719 51.722656 51.628906 51.722656 50.539062 C 51.722656 49.445312 50.835938 48.5625 49.746094 48.5625 C 48.65625 48.5625 47.773438 49.445312 47.773438 50.539062 C 47.773438 51.628906 48.65625 52.511719 49.746094 52.511719 Z M 49.746094 52.511719 " fill-opacity="1" fill-rule="evenodd"/></g></svg>