<svg xmlns="http://www.w3.org/2000/svg" xmlns:xlink="http://www.w3.org/1999/xlink" width="80" zoomAndPan="magnify" viewBox="0 0 60 60" height="80" preserveAspectRatio="xMidYMid meet" version="1.0"><defs><clipPath id="ef8d0ea1ae"><path d="M 0 51 L 45 51 L 45 51.75 L 0 51.75 Z M 0 51 " clip-rule="nonzero"/></clipPath><clipPath id="30d3f6c55e"><path d="M 45 6 L 60 6 L 60 51.75 L 45 51.75 Z M 45 6 " clip-rule="nonzero"/></clipPath><clipPath id="05159b77c9"><path d="M 11.382812 9.957031 L 32.382812 9.957031 L 32.382812 28.707031 L 11.382812 28.707031 Z M 11.382812 9.957031 " clip-rule="nonzero"/></clipPath></defs><path fill="#232122" d="M 2.996094 35.089844 L 19.160156 35.089844 L 19.160156 38.230469 L 16.910156 38.230469 C 15.8125 38.230469 14.921875 39.125 14.921875 40.230469 L 29.660156 40.230469 C 29.660156 39.125 28.773438 38.230469 27.675781 38.230469 L 25.421875 38.230469 L 25.421875 35.089844 L 41.589844 35.089844 C 42.332031 35.089844 42.933594 34.488281 42.933594 33.738281 L 42.933594 7.359375 C 42.933594 6.613281 42.332031 6.011719 41.589844 6.011719 L 2.996094 6.011719 C 2.253906 6.011719 1.652344 6.613281 1.652344 7.359375 L 1.652344 33.738281 C 1.652344 34.480469 2.253906 35.089844 2.996094 35.089844 Z M 38.066406 33.394531 C 37.929688 33.394531 37.828125 33.285156 37.828125 33.152344 C 37.828125 33.019531 37.9375 32.910156 38.066406 32.910156 C 38.199219 32.910156 38.308594 33.019531 38.308594 33.152344 C 38.308594 33.285156 38.203125 33.394531 38.066406 33.394531 Z M 39.574219 33.636719 C 39.304688 33.636719 39.085938 33.417969 39.085938 33.148438 C 39.085938 32.878906 39.304688 32.660156 39.574219 32.660156 C 39.839844 32.660156 40.058594 32.878906 40.058594 33.148438 C 40.058594 33.417969 39.839844 33.636719 39.574219 33.636719 Z M 22.296875 6.300781 C 22.457031 6.300781 22.582031 6.425781 22.582031 6.585938 C 22.582031 6.746094 22.457031 6.871094 22.296875 6.871094 C 22.140625 6.871094 22.015625 6.746094 22.015625 6.585938 C 22.015625 6.425781 22.140625 6.300781 22.296875 6.300781 Z M 2.835938 7.816406 C 2.835938 7.46875 3.113281 7.195312 3.453125 7.195312 L 41.136719 7.195312 C 41.480469 7.195312 41.753906 7.476562 41.753906 7.816406 L 41.753906 30.878906 C 41.753906 31.226562 41.476562 31.5 41.136719 31.5 L 3.453125 31.5 C 3.109375 31.5 2.835938 31.21875 2.835938 30.878906 Z M 2.835938 7.816406 " fill-opacity="1" fill-rule="nonzero"/><path fill="#232122" d="M 4.351562 41.722656 L 0 50.730469 L 44.589844 50.730469 L 40.238281 41.722656 Z M 1.652344 49.890625 L 5.191406 42.558594 L 39.394531 42.558594 L 42.933594 49.890625 Z M 1.652344 49.890625 " fill-opacity="1" fill-rule="nonzero"/><path fill="#232122" d="M 8.453125 42.933594 L 6.609375 42.933594 L 6.203125 43.777344 L 8.046875 43.777344 Z M 8.453125 42.933594 " fill-opacity="1" fill-rule="nonzero"/><path fill="#232122" d="M 7.757812 44.367188 L 5.917969 44.367188 L 5.503906 45.210938 L 7.347656 45.210938 Z M 7.757812 44.367188 " fill-opacity="1" fill-rule="nonzero"/><path fill="#232122" d="M 5.21875 45.804688 L 4.8125 46.648438 L 6.648438 46.648438 L 7.0625 45.804688 Z M 5.21875 45.804688 " fill-opacity="1" fill-rule="nonzero"/><path fill="#232122" d="M 4.113281 48.082031 L 5.957031 48.082031 L 6.367188 47.238281 L 4.523438 47.238281 Z M 4.113281 48.082031 " fill-opacity="1" fill-rule="nonzero"/><path fill="#232122" d="M 3.421875 49.523438 L 5.257812 49.523438 L 5.667969 48.675781 L 3.828125 48.675781 Z M 3.421875 49.523438 " fill-opacity="1" fill-rule="nonzero"/><path fill="#232122" d="M 11.398438 42.933594 L 9.5625 42.933594 L 9.238281 43.777344 L 11.078125 43.777344 Z M 11.398438 42.933594 " fill-opacity="1" fill-rule="nonzero"/><path fill="#232122" d="M 10.855469 44.367188 L 9.015625 44.367188 L 8.695312 45.210938 L 10.539062 45.210938 Z M 10.855469 44.367188 " fill-opacity="1" fill-rule="nonzero"/><path fill="#232122" d="M 8.472656 45.804688 L 8.148438 46.648438 L 9.992188 46.648438 L 10.316406 45.804688 Z M 8.472656 45.804688 " fill-opacity="1" fill-rule="nonzero"/><path fill="#232122" d="M 7.605469 48.082031 L 9.449219 48.082031 L 9.769531 47.238281 L 7.925781 47.238281 Z M 7.605469 48.082031 " fill-opacity="1" fill-rule="nonzero"/><path fill="#232122" d="M 7.0625 49.523438 L 8.902344 49.523438 L 9.222656 48.675781 L 7.378906 48.675781 Z M 7.0625 49.523438 " fill-opacity="1" fill-rule="nonzero"/><path fill="#232122" d="M 14.269531 42.933594 L 12.429688 42.933594 L 12.15625 43.777344 L 13.996094 43.777344 Z M 14.269531 42.933594 " fill-opacity="1" fill-rule="nonzero"/><path fill="#232122" d="M 13.804688 44.367188 L 11.96875 44.367188 L 11.695312 45.210938 L 13.53125 45.210938 Z M 13.804688 44.367188 " fill-opacity="1" fill-rule="nonzero"/><path fill="#232122" d="M 13.074219 46.648438 L 13.347656 45.804688 L 11.503906 45.804688 L 11.230469 46.648438 Z M 13.074219 46.648438 " fill-opacity="1" fill-rule="nonzero"/><path fill="#232122" d="M 10.765625 48.082031 L 12.609375 48.082031 L 12.882812 47.238281 L 11.039062 47.238281 Z M 10.765625 48.082031 " fill-opacity="1" fill-rule="nonzero"/><path fill="#232122" d="M 17.339844 42.933594 L 15.496094 42.933594 L 15.273438 43.777344 L 17.109375 43.777344 Z M 17.339844 42.933594 " fill-opacity="1" fill-rule="nonzero"/><path fill="#232122" d="M 16.953125 44.367188 L 15.113281 44.367188 L 14.886719 45.210938 L 16.730469 45.210938 Z M 16.953125 44.367188 " fill-opacity="1" fill-rule="nonzero"/><path fill="#232122" d="M 16.570312 45.804688 L 14.726562 45.804688 L 14.503906 46.648438 L 16.34375 46.648438 Z M 16.570312 45.804688 " fill-opacity="1" fill-rule="nonzero"/><path fill="#232122" d="M 15.953125 48.082031 L 16.183594 47.238281 L 14.339844 47.238281 L 14.117188 48.082031 Z M 15.953125 48.082031 " fill-opacity="1" fill-rule="nonzero"/><path fill="#232122" d="M 20.257812 42.933594 L 18.414062 42.933594 L 18.339844 43.777344 L 20.175781 43.777344 Z M 20.257812 42.933594 " fill-opacity="1" fill-rule="nonzero"/><path fill="#232122" d="M 20.121094 44.367188 L 18.277344 44.367188 L 18.203125 45.210938 L 20.039062 45.210938 Z M 20.121094 44.367188 " fill-opacity="1" fill-rule="nonzero"/><path fill="#232122" d="M 19.984375 45.804688 L 18.140625 45.804688 L 18.066406 46.648438 L 19.902344 46.648438 Z M 19.984375 45.804688 " fill-opacity="1" fill-rule="nonzero"/><path fill="#232122" d="M 19.847656 47.238281 L 18.003906 47.238281 L 17.929688 48.082031 L 19.765625 48.082031 Z M 19.847656 47.238281 " fill-opacity="1" fill-rule="nonzero"/><path fill="#232122" d="M 21.375 42.933594 L 23.21875 42.933594 L 23.21875 43.777344 L 21.375 43.777344 Z M 21.375 42.933594 " fill-opacity="1" fill-rule="nonzero"/><path fill="#232122" d="M 21.375 44.367188 L 23.21875 44.367188 L 23.21875 45.210938 L 21.375 45.210938 Z M 21.375 44.367188 " fill-opacity="1" fill-rule="nonzero"/><path fill="#232122" d="M 21.375 45.804688 L 23.21875 45.804688 L 23.21875 46.648438 L 21.375 46.648438 Z M 21.375 45.804688 " fill-opacity="1" fill-rule="nonzero"/><path fill="#232122" d="M 21.375 47.238281 L 23.21875 47.238281 L 23.21875 48.082031 L 21.375 48.082031 Z M 21.375 47.238281 " fill-opacity="1" fill-rule="nonzero"/><path fill="#232122" d="M 38.410156 43.777344 L 38 42.933594 L 36.15625 42.933594 L 36.566406 43.777344 Z M 38.410156 43.777344 " fill-opacity="1" fill-rule="nonzero"/><path fill="#232122" d="M 37.265625 45.210938 L 39.105469 45.210938 L 38.695312 44.367188 L 36.855469 44.367188 Z M 37.265625 45.210938 " fill-opacity="1" fill-rule="nonzero"/><path fill="#232122" d="M 37.550781 45.804688 L 37.957031 46.648438 L 39.800781 46.648438 L 39.394531 45.804688 Z M 37.550781 45.804688 " fill-opacity="1" fill-rule="nonzero"/><path fill="#232122" d="M 38.65625 48.082031 L 40.5 48.082031 L 40.089844 47.238281 L 38.246094 47.238281 Z M 38.65625 48.082031 " fill-opacity="1" fill-rule="nonzero"/><path fill="#232122" d="M 39.355469 49.523438 L 41.191406 49.523438 L 40.785156 48.675781 L 38.945312 48.675781 Z M 39.355469 49.523438 " fill-opacity="1" fill-rule="nonzero"/><path fill="#232122" d="M 35.371094 43.777344 L 35.050781 42.933594 L 33.210938 42.933594 L 33.527344 43.777344 Z M 35.371094 43.777344 " fill-opacity="1" fill-rule="nonzero"/><path fill="#232122" d="M 34.074219 45.210938 L 35.917969 45.210938 L 35.597656 44.367188 L 33.753906 44.367188 Z M 34.074219 45.210938 " fill-opacity="1" fill-rule="nonzero"/><path fill="#232122" d="M 36.140625 45.804688 L 34.296875 45.804688 L 34.621094 46.648438 L 36.464844 46.648438 Z M 36.140625 45.804688 " fill-opacity="1" fill-rule="nonzero"/><path fill="#232122" d="M 36.6875 47.238281 L 34.84375 47.238281 L 35.164062 48.082031 L 37.003906 48.082031 Z M 36.6875 47.238281 " fill-opacity="1" fill-rule="nonzero"/><path fill="#232122" d="M 35.390625 48.675781 L 35.710938 49.523438 L 37.550781 49.523438 L 37.234375 48.675781 Z M 35.390625 48.675781 " fill-opacity="1" fill-rule="nonzero"/><path fill="#232122" d="M 32.453125 43.777344 L 32.183594 42.933594 L 30.34375 42.933594 L 30.609375 43.777344 Z M 32.453125 43.777344 " fill-opacity="1" fill-rule="nonzero"/><path fill="#232122" d="M 31.074219 45.210938 L 32.917969 45.210938 L 32.644531 44.367188 L 30.800781 44.367188 Z M 31.074219 45.210938 " fill-opacity="1" fill-rule="nonzero"/><path fill="#232122" d="M 31.539062 46.648438 L 33.382812 46.648438 L 33.109375 45.804688 L 31.265625 45.804688 Z M 31.539062 46.648438 " fill-opacity="1" fill-rule="nonzero"/><path fill="#232122" d="M 31.730469 47.238281 L 32 48.082031 L 33.84375 48.082031 L 33.574219 47.238281 Z M 31.730469 47.238281 " fill-opacity="1" fill-rule="nonzero"/><path fill="#232122" d="M 33.980469 48.675781 L 10.578125 48.675781 L 10.304688 49.523438 L 34.304688 49.523438 L 34.03125 48.675781 Z M 33.980469 48.675781 " fill-opacity="1" fill-rule="nonzero"/><path fill="#232122" d="M 29.339844 43.777344 L 29.109375 42.933594 L 27.273438 42.933594 L 27.496094 43.777344 Z M 29.339844 43.777344 " fill-opacity="1" fill-rule="nonzero"/><path fill="#232122" d="M 27.882812 45.210938 L 29.726562 45.210938 L 29.5 44.367188 L 27.65625 44.367188 Z M 27.882812 45.210938 " fill-opacity="1" fill-rule="nonzero"/><path fill="#232122" d="M 28.269531 46.648438 L 30.109375 46.648438 L 29.886719 45.804688 L 28.042969 45.804688 Z M 28.269531 46.648438 " fill-opacity="1" fill-rule="nonzero"/><path fill="#232122" d="M 28.652344 48.082031 L 30.496094 48.082031 L 30.265625 47.238281 L 28.429688 47.238281 Z M 28.652344 48.082031 " fill-opacity="1" fill-rule="nonzero"/><path fill="#232122" d="M 26.273438 43.777344 L 26.191406 42.933594 L 24.355469 42.933594 L 24.429688 43.777344 Z M 26.273438 43.777344 " fill-opacity="1" fill-rule="nonzero"/><path fill="#232122" d="M 24.574219 45.210938 L 26.410156 45.210938 L 26.328125 44.367188 L 24.492188 44.367188 Z M 24.574219 45.210938 " fill-opacity="1" fill-rule="nonzero"/><path fill="#232122" d="M 24.710938 46.648438 L 26.546875 46.648438 L 26.464844 45.804688 L 24.628906 45.804688 Z M 24.710938 46.648438 " fill-opacity="1" fill-rule="nonzero"/><path fill="#232122" d="M 24.84375 48.082031 L 26.683594 48.082031 L 26.605469 47.238281 L 24.761719 47.238281 Z M 24.84375 48.082031 " fill-opacity="1" fill-rule="nonzero"/><g clip-path="url(#ef8d0ea1ae)"><path fill="#232122" d="M 0 51.085938 L 44.589844 51.085938 L 44.589844 51.746094 L 0 51.746094 Z M 0 51.085938 " fill-opacity="1" fill-rule="nonzero"/></g><g clip-path="url(#30d3f6c55e)"><path fill="#232122" d="M 58.894531 6.003906 L 46.554688 6.003906 C 45.945312 6.003906 45.449219 6.503906 45.449219 7.121094 L 45.449219 50.296875 C 45.449219 50.910156 45.945312 51.410156 46.554688 51.410156 L 58.894531 51.410156 C 59.503906 51.410156 60 50.910156 60 50.296875 L 60 7.125 C 60 6.503906 59.503906 6.003906 58.894531 6.003906 Z M 52.722656 46.90625 C 52.359375 46.90625 52.058594 46.605469 52.058594 46.238281 C 52.058594 45.871094 52.359375 45.566406 52.722656 45.566406 C 53.089844 45.566406 53.390625 45.871094 53.390625 46.238281 C 53.390625 46.605469 53.089844 46.90625 52.722656 46.90625 Z M 52.722656 43.304688 C 51.988281 43.304688 51.394531 42.707031 51.394531 41.964844 C 51.394531 41.222656 51.988281 40.625 52.722656 40.625 C 53.460938 40.625 54.054688 41.222656 54.054688 41.964844 C 54.054688 42.707031 53.453125 43.304688 52.722656 43.304688 Z M 58.03125 26.503906 L 47.417969 26.503906 C 47.082031 26.503906 46.8125 26.226562 46.8125 25.894531 C 46.8125 25.558594 47.082031 25.285156 47.417969 25.285156 L 58.03125 25.285156 C 58.363281 25.285156 58.636719 25.558594 58.636719 25.894531 C 58.636719 26.226562 58.363281 26.503906 58.03125 26.503906 Z M 58.03125 24.339844 L 47.417969 24.339844 C 47.082031 24.339844 46.8125 24.066406 46.8125 23.730469 C 46.8125 23.394531 47.082031 23.121094 47.417969 23.121094 L 58.03125 23.121094 C 58.363281 23.121094 58.636719 23.394531 58.636719 23.730469 C 58.636719 24.066406 58.363281 24.339844 58.03125 24.339844 Z M 58.03125 22.175781 L 47.417969 22.175781 C 47.082031 22.175781 46.8125 21.902344 46.8125 21.566406 C 46.8125 21.230469 47.082031 20.957031 47.417969 20.957031 L 58.03125 20.957031 C 58.363281 20.957031 58.636719 21.230469 58.636719 21.566406 C 58.636719 21.902344 58.363281 22.175781 58.03125 22.175781 Z M 58.03125 20.019531 L 47.417969 20.019531 C 47.082031 20.019531 46.8125 19.742188 46.8125 19.410156 C 46.8125 19.074219 47.082031 18.796875 47.417969 18.796875 L 58.03125 18.796875 C 58.363281 18.796875 58.636719 19.074219 58.636719 19.410156 C 58.636719 19.742188 58.363281 20.019531 58.03125 20.019531 Z M 58.332031 11.296875 L 47.109375 11.296875 C 46.941406 11.296875 46.804688 11.160156 46.804688 10.992188 C 46.804688 10.820312 46.941406 10.683594 47.109375 10.683594 L 58.332031 10.683594 C 58.5 10.683594 58.636719 10.820312 58.636719 10.992188 C 58.636719 11.160156 58.5 11.296875 58.332031 11.296875 Z M 58.332031 9.507812 L 47.109375 9.507812 C 46.941406 9.507812 46.804688 9.371094 46.804688 9.199219 C 46.804688 9.03125 46.941406 8.894531 47.109375 8.894531 L 58.332031 8.894531 C 58.5 8.894531 58.636719 9.03125 58.636719 9.199219 C 58.636719 9.371094 58.5 9.507812 58.332031 9.507812 Z M 58.332031 9.507812 " fill-opacity="1" fill-rule="nonzero"/></g><g clip-path="url(#05159b77c9)"><path fill="#000000" d="M 19.316406 22.667969 C 19.511719 22.667969 19.640625 22.800781 19.640625 23 C 19.640625 23.199219 19.511719 23.332031 19.316406 23.332031 L 13.65625 23.332031 C 13.460938 23.332031 13.332031 23.199219 13.332031 23 C 13.332031 22.800781 13.460938 22.667969 13.65625 22.667969 Z M 11.761719 19.878906 L 17.421875 19.878906 C 17.617188 19.878906 17.746094 20.011719 17.746094 20.210938 C 17.746094 20.402344 17.628906 20.53125 17.453125 20.542969 L 11.761719 20.542969 C 11.566406 20.542969 11.433594 20.414062 11.433594 20.210938 C 11.433594 20.023438 11.550781 19.894531 11.730469 19.882812 L 11.761719 19.878906 L 17.421875 19.878906 Z M 13.65625 17.09375 L 19.316406 17.09375 C 19.511719 17.09375 19.640625 17.226562 19.640625 17.425781 C 19.640625 17.613281 19.527344 17.742188 19.347656 17.753906 L 19.316406 17.757812 L 13.65625 17.757812 C 13.460938 17.757812 13.332031 17.625 13.332031 17.425781 C 13.332031 17.234375 13.445312 17.109375 13.625 17.09375 L 19.316406 17.09375 Z M 31.445312 16.582031 C 32.015625 17.710938 32.332031 18.992188 32.332031 20.34375 C 32.332031 24.960938 28.636719 28.710938 24.089844 28.707031 C 21.898438 28.707031 19.835938 27.847656 18.269531 26.253906 C 18.136719 26.121094 18.136719 25.921875 18.269531 25.789062 C 18.398438 25.65625 18.59375 25.65625 18.726562 25.789062 C 20.164062 27.25 22.0625 28.046875 24.089844 28.046875 C 28.273438 28.046875 31.675781 24.59375 31.675781 20.34375 C 31.675781 19.183594 31.417969 18.082031 30.960938 17.09375 Z M 30.441406 17.640625 C 30.796875 18.480469 30.992188 19.40625 30.992188 20.378906 C 30.992188 24.226562 27.917969 27.347656 24.121094 27.347656 C 22.71875 27.347656 21.375 26.914062 20.230469 26.121094 C 20.066406 26.019531 20.035156 25.820312 20.132812 25.65625 C 20.230469 25.523438 20.429688 25.488281 20.625 25.585938 C 21.636719 26.316406 22.847656 26.683594 24.121094 26.683594 C 27.554688 26.683594 30.335938 23.859375 30.335938 20.375 C 30.335938 19.597656 30.199219 18.855469 29.945312 18.167969 Z M 30.355469 14.742188 C 30.648438 14.703125 30.933594 14.855469 31.0625 15.125 C 31.191406 15.390625 31.132812 15.714844 30.921875 15.921875 C 28.519531 18.367188 26.777344 20.355469 24.34375 22.828125 C 24.097656 23.085938 23.695312 23.105469 23.425781 22.871094 L 20.476562 20.339844 C 20.335938 20.222656 20.25 20.050781 20.234375 19.867188 C 20.21875 19.683594 20.273438 19.503906 20.390625 19.363281 C 20.507812 19.222656 20.675781 19.136719 20.855469 19.121094 C 21.035156 19.105469 21.214844 19.164062 21.355469 19.28125 L 23.820312 21.398438 C 25.988281 19.167969 27.6875 17.261719 29.960938 14.949219 C 30.066406 14.839844 30.203125 14.765625 30.355469 14.742188 Z M 24.121094 13.40625 C 25.855469 13.40625 27.4375 14.058594 28.644531 15.128906 L 28.195312 15.609375 C 27.105469 14.648438 25.679688 14.070312 24.121094 14.070312 C 22.8125 14.070312 21.539062 14.46875 20.492188 15.265625 C 20.328125 15.363281 20.132812 15.332031 20.035156 15.199219 C 19.9375 15.066406 19.96875 14.832031 20.101562 14.734375 C 21.277344 13.871094 22.683594 13.40625 24.121094 13.40625 Z M 25.59375 9.957031 C 25.792969 9.957031 25.921875 10.089844 25.921875 10.289062 C 25.921875 10.476562 25.804688 10.605469 25.625 10.617188 L 25.59375 10.621094 L 24.417969 10.621094 L 24.417969 12.011719 C 26.339844 12.078125 28.074219 12.8125 29.433594 13.996094 L 29.519531 14.070312 L 29.582031 14.136719 L 29.128906 14.621094 C 27.773438 13.414062 26.007812 12.675781 24.089844 12.675781 C 21.996094 12.675781 20.035156 13.539062 18.5625 15.097656 C 18.429688 15.230469 18.234375 15.230469 18.105469 15.097656 C 17.972656 14.96875 17.972656 14.769531 18.105469 14.636719 C 19.582031 13.039062 21.53125 12.144531 23.644531 12.019531 L 23.761719 12.011719 L 23.761719 10.621094 L 22.617188 10.621094 C 22.421875 10.621094 22.289062 10.488281 22.289062 10.289062 C 22.289062 10.097656 22.40625 9.96875 22.585938 9.957031 Z M 25.59375 9.957031 " fill-opacity="1" fill-rule="evenodd"/></g></svg>