<svg xmlns="http://www.w3.org/2000/svg" xmlns:xlink="http://www.w3.org/1999/xlink" width="400" zoomAndPan="magnify" viewBox="0 0 300 299.999988" height="400" preserveAspectRatio="xMidYMid meet" version="1.0"><path fill="#ffffff" d="M 150 0 C 67.15625 0 0 67.15625 0 150 C 0 232.84375 67.15625 300 150 300 C 232.84375 300 300 232.84375 300 150 C 300 67.15625 232.84375 0 150 0 Z M 58.578125 78.253906 L 241.230469 78.253906 C 241.4375 78.25 241.625 78.308594 241.796875 78.421875 C 241.96875 78.539062 242.09375 78.691406 242.171875 78.886719 C 242.25 79.078125 242.265625 79.273438 242.222656 79.476562 C 242.179688 79.679688 242.082031 79.851562 241.929688 79.992188 L 180.527344 138.265625 L 180.429688 138.367188 L 162.09375 155.765625 C 161.65625 156.183594 161.199219 156.578125 160.726562 156.949219 C 160.25 157.324219 159.757812 157.671875 159.25 158 C 158.742188 158.324219 158.21875 158.625 157.683594 158.902344 C 157.144531 159.175781 156.597656 159.425781 156.035156 159.648438 C 155.476562 159.871094 154.90625 160.066406 154.324219 160.234375 C 153.746094 160.402344 153.160156 160.542969 152.566406 160.65625 C 151.972656 160.765625 151.375 160.851562 150.773438 160.90625 C 150.171875 160.960938 149.570312 160.984375 148.96875 160.980469 C 148.363281 160.980469 147.761719 160.945312 147.160156 160.886719 C 146.558594 160.824219 145.964844 160.734375 145.371094 160.617188 C 144.78125 160.5 144.195312 160.351562 143.617188 160.179688 C 143.039062 160.003906 142.472656 159.800781 141.914062 159.574219 C 141.355469 159.34375 140.808594 159.089844 140.273438 158.808594 C 139.738281 158.527344 139.21875 158.222656 138.714844 157.890625 C 138.210938 157.558594 137.722656 157.203125 137.25 156.828125 C 136.78125 156.449219 136.328125 156.050781 135.898438 155.628906 L 118.921875 139.167969 C 118.894531 139.140625 118.867188 139.113281 118.835938 139.085938 L 57.871094 79.984375 C 57.722656 79.84375 57.625 79.667969 57.585938 79.46875 C 57.542969 79.265625 57.558594 79.070312 57.636719 78.878906 C 57.714844 78.691406 57.839844 78.535156 58.011719 78.421875 C 58.183594 78.308594 58.371094 78.25 58.578125 78.253906 Z M 49.964844 211.667969 L 49.964844 86.316406 C 49.964844 86.113281 50.023438 85.925781 50.132812 85.757812 C 50.246094 85.589844 50.394531 85.464844 50.582031 85.386719 C 50.769531 85.304688 50.960938 85.285156 51.160156 85.324219 C 51.359375 85.359375 51.53125 85.449219 51.679688 85.589844 L 109.613281 141.761719 C 109.804688 141.945312 109.90625 142.171875 109.917969 142.433594 C 109.933594 142.699219 109.855469 142.933594 109.683594 143.132812 L 51.75 212.320312 C 51.613281 212.484375 51.441406 212.59375 51.238281 212.648438 C 51.03125 212.703125 50.828125 212.695312 50.628906 212.621094 C 50.429688 212.546875 50.269531 212.425781 50.148438 212.25 C 50.027344 212.074219 49.964844 211.882812 49.964844 211.667969 Z M 243.113281 221.746094 L 56.886719 221.746094 C 56.460938 221.746094 56.15625 221.554688 55.972656 221.164062 C 55.792969 220.777344 55.839844 220.417969 56.113281 220.089844 L 115.589844 149.066406 C 115.679688 148.960938 115.789062 148.875 115.914062 148.8125 C 116.039062 148.75 116.171875 148.714844 116.3125 148.707031 C 116.453125 148.699219 116.589844 148.722656 116.71875 148.769531 C 116.851562 148.820312 116.964844 148.894531 117.066406 148.992188 L 130.082031 161.609375 C 131.332031 162.824219 132.683594 163.910156 134.144531 164.867188 C 135.601562 165.820312 137.136719 166.625 138.75 167.285156 C 140.363281 167.945312 142.023438 168.441406 143.734375 168.78125 C 145.441406 169.121094 147.167969 169.292969 148.910156 169.296875 L 149.058594 169.296875 C 150.789062 169.300781 152.503906 169.140625 154.203125 168.816406 C 155.902344 168.488281 157.554688 168.007812 159.164062 167.367188 C 160.769531 166.722656 162.300781 165.9375 163.757812 165.003906 C 165.214844 164.066406 166.570312 163.003906 167.820312 161.8125 L 182.226562 148.136719 C 182.328125 148.039062 182.445312 147.96875 182.574219 147.917969 C 182.707031 147.871094 182.839844 147.851562 182.980469 147.859375 C 183.117188 147.867188 183.25 147.902344 183.375 147.964844 C 183.5 148.027344 183.605469 148.113281 183.695312 148.21875 L 243.882812 220.089844 C 244.15625 220.417969 244.203125 220.777344 244.023438 221.164062 C 243.84375 221.550781 243.539062 221.746094 243.113281 221.746094 Z M 250.035156 211.667969 C 250.035156 211.882812 249.972656 212.074219 249.851562 212.25 C 249.730469 212.421875 249.566406 212.546875 249.367188 212.617188 C 249.167969 212.691406 248.964844 212.699219 248.761719 212.644531 C 248.554688 212.589844 248.386719 212.480469 248.25 212.316406 L 189.679688 142.371094 C 189.507812 142.167969 189.429688 141.933594 189.445312 141.667969 C 189.460938 141.398438 189.5625 141.175781 189.757812 140.992188 L 248.332031 85.402344 C 248.480469 85.265625 248.652344 85.179688 248.847656 85.144531 C 249.046875 85.109375 249.238281 85.132812 249.421875 85.210938 C 249.609375 85.292969 249.753906 85.414062 249.867188 85.582031 C 249.976562 85.75 250.03125 85.933594 250.035156 86.136719 Z M 250.035156 211.667969 " fill-opacity="1" fill-rule="nonzero"/></svg>